<?xml version="1.0" encoding="UTF-8" standalone="no"?>
<!DOCTYPE svg PUBLIC "-//W3C//DTD SVG 1.1//EN"
 "http://www.w3.org/Graphics/SVG/1.1/DTD/svg11.dtd">
<!-- Generated by graphviz version 12.2.1 (0)
 -->
<!-- Title: SharedLibraryExample Pages: 1 -->
<svg width="813pt" height="155pt"
 viewBox="0.00 0.00 813.25 155.00" xmlns="http://www.w3.org/2000/svg" xmlns:xlink="http://www.w3.org/1999/xlink">
<g id="graph0" class="graph" transform="scale(1 1) rotate(0) translate(4 151)">
<title>SharedLibraryExample</title>
<g id="clust1" class="cluster">
<title>cluster_functions</title>
<path fill="#eeeeee" stroke="black" d="M673.75,-8C673.75,-8 793.25,-8 793.25,-8 799.25,-8 805.25,-14 805.25,-20 805.25,-20 805.25,-127 805.25,-127 805.25,-133 799.25,-139 793.25,-139 793.25,-139 673.75,-139 673.75,-139 667.75,-139 661.75,-133 661.75,-127 661.75,-127 661.75,-20 661.75,-20 661.75,-14 667.75,-8 673.75,-8"/>
<text text-anchor="middle" x="733.5" y="-121.7" font-family="Times,serif" font-size="14.00">Library Functions</text>
</g>
<!-- Main -->
<g id="node1" class="node">
<title>Main</title>
<path fill="#a8d08d" stroke="black" d="M332.38,-106.25C332.38,-106.25 231.62,-106.25 231.62,-106.25 225.62,-106.25 219.62,-100.25 219.62,-94.25 219.62,-94.25 219.62,-81.75 219.62,-81.75 219.62,-75.75 225.62,-69.75 231.62,-69.75 231.62,-69.75 332.38,-69.75 332.38,-69.75 338.38,-69.75 344.38,-75.75 344.38,-81.75 344.38,-81.75 344.38,-94.25 344.38,-94.25 344.38,-100.25 338.38,-106.25 332.38,-106.25"/>
<text text-anchor="middle" x="282" y="-90.85" font-family="Arial" font-size="12.00">main.c</text>
<text text-anchor="middle" x="282" y="-76.6" font-family="Arial" font-size="12.00">Executable Program</text>
</g>
<!-- LibObj -->
<g id="node3" class="node">
<title>LibObj</title>
<path fill="#ffd966" stroke="black" d="M589.5,-78.25C589.5,-78.25 464,-78.25 464,-78.25 458,-78.25 452,-72.25 452,-66.25 452,-66.25 452,-53.75 452,-53.75 452,-47.75 458,-41.75 464,-41.75 464,-41.75 589.5,-41.75 589.5,-41.75 595.5,-41.75 601.5,-47.75 601.5,-53.75 601.5,-53.75 601.5,-66.25 601.5,-66.25 601.5,-72.25 595.5,-78.25 589.5,-78.25"/>
<text text-anchor="middle" x="526.75" y="-62.85" font-family="Arial" font-size="12.00">libadd.so</text>
<text text-anchor="middle" x="526.75" y="-48.6" font-family="Arial" font-size="12.00">Compiled Shared Library</text>
</g>
<!-- Main&#45;&gt;LibObj -->
<g id="edge4" class="edge">
<title>Main&#45;&gt;LibObj</title>
<path fill="none" stroke="#555555" d="M344.57,-80.9C373.72,-77.54 409.01,-73.47 440.67,-69.81"/>
<polygon fill="#555555" stroke="#555555" points="440.66,-73.34 450.19,-68.72 439.86,-66.38 440.66,-73.34"/>
<text text-anchor="middle" x="401" y="-92.64" font-family="Arial" font-size="10.00">dlopen()</text>
<text text-anchor="middle" x="401" y="-80.64" font-family="Arial" font-size="10.00">runtime loading</text>
</g>
<!-- Library -->
<g id="node2" class="node">
<title>Library</title>
<path fill="#f4b084" stroke="black" d="M338,-51.25C338,-51.25 226,-51.25 226,-51.25 220,-51.25 214,-45.25 214,-39.25 214,-39.25 214,-26.75 214,-26.75 214,-20.75 220,-14.75 226,-14.75 226,-14.75 338,-14.75 338,-14.75 344,-14.75 350,-20.75 350,-26.75 350,-26.75 350,-39.25 350,-39.25 350,-45.25 344,-51.25 338,-51.25"/>
<text text-anchor="middle" x="282" y="-35.85" font-family="Arial" font-size="12.00">add.c</text>
<text text-anchor="middle" x="282" y="-21.6" font-family="Arial" font-size="12.00">Shared Library Source</text>
</g>
<!-- Library&#45;&gt;LibObj -->
<g id="edge3" class="edge">
<title>Library&#45;&gt;LibObj</title>
<path fill="none" stroke="#555555" d="M350.3,-39.93C376.44,-42.68 406.63,-45.91 434,-49 436.06,-49.23 438.15,-49.47 440.26,-49.71"/>
<polygon fill="#555555" stroke="#555555" points="439.81,-53.18 450.14,-50.85 440.61,-46.23 439.81,-53.18"/>
<text text-anchor="middle" x="401" y="-51.5" font-family="Arial" font-size="10.00">compile</text>
</g>
<!-- Add -->
<g id="node5" class="node">
<title>Add</title>
<path fill="#ffcc99" stroke="black" d="M768.38,-106C768.38,-106 697.62,-106 697.62,-106 691.62,-106 685.62,-100 685.62,-94 685.62,-94 685.62,-82 685.62,-82 685.62,-76 691.62,-70 697.62,-70 697.62,-70 768.38,-70 768.38,-70 774.38,-70 780.38,-76 780.38,-82 780.38,-82 780.38,-94 780.38,-94 780.38,-100 774.38,-106 768.38,-106"/>
<text text-anchor="middle" x="733" y="-83.72" font-family="Arial" font-size="12.00">add(int a, int b)</text>
</g>
<!-- LibObj&#45;&gt;Add -->
<g id="edge5" class="edge">
<title>LibObj&#45;&gt;Add</title>
<path fill="none" stroke="#555555" d="M601.78,-70.15C625.5,-73.4 651.41,-76.95 673.83,-80.03"/>
<polygon fill="#555555" stroke="#555555" points="673.33,-83.49 683.71,-81.38 674.28,-76.55 673.33,-83.49"/>
<text text-anchor="middle" x="635.62" y="-79.01" font-family="Arial" font-size="10.00">dlsym()</text>
</g>
<!-- Version -->
<g id="node6" class="node">
<title>Version</title>
<path fill="#ffcc99" stroke="black" d="M777,-52C777,-52 689,-52 689,-52 683,-52 677,-46 677,-40 677,-40 677,-28 677,-28 677,-22 683,-16 689,-16 689,-16 777,-16 777,-16 783,-16 789,-22 789,-28 789,-28 789,-40 789,-40 789,-46 783,-52 777,-52"/>
<text text-anchor="middle" x="733" y="-29.73" font-family="Arial" font-size="12.00">add_version(void)</text>
</g>
<!-- LibObj&#45;&gt;Version -->
<g id="edge6" class="edge">
<title>LibObj&#45;&gt;Version</title>
<path fill="none" stroke="#555555" d="M601.78,-50.58C622.58,-47.93 645.08,-45.06 665.42,-42.48"/>
<polygon fill="#555555" stroke="#555555" points="665.82,-45.95 675.3,-41.22 664.93,-39.01 665.82,-45.95"/>
<text text-anchor="middle" x="635.62" y="-50.28" font-family="Arial" font-size="10.00">dlsym()</text>
</g>
<!-- Make -->
<g id="node4" class="node">
<title>Make</title>
<path fill="#c6e0b4" stroke="black" d="M95.5,-78.25C95.5,-78.25 12,-78.25 12,-78.25 6,-78.25 0,-72.25 0,-66.25 0,-66.25 0,-53.75 0,-53.75 0,-47.75 6,-41.75 12,-41.75 12,-41.75 95.5,-41.75 95.5,-41.75 101.5,-41.75 107.5,-47.75 107.5,-53.75 107.5,-53.75 107.5,-66.25 107.5,-66.25 107.5,-72.25 101.5,-78.25 95.5,-78.25"/>
<text text-anchor="middle" x="53.75" y="-62.85" font-family="Arial" font-size="12.00">Makefile</text>
<text text-anchor="middle" x="53.75" y="-48.6" font-family="Arial" font-size="12.00">Build Instructions</text>
</g>
<!-- Make&#45;&gt;Main -->
<g id="edge2" class="edge">
<title>Make&#45;&gt;Main</title>
<path fill="none" stroke="#555555" d="M107.8,-66.56C137.71,-70.27 175.51,-74.94 208.16,-78.99"/>
<polygon fill="#555555" stroke="#555555" points="207.62,-82.45 217.97,-80.2 208.48,-75.5 207.62,-82.45"/>
<text text-anchor="middle" x="160.75" y="-79.83" font-family="Arial" font-size="10.00">build&#45;executable</text>
</g>
<!-- Make&#45;&gt;Library -->
<g id="edge1" class="edge">
<title>Make&#45;&gt;Library</title>
<path fill="none" stroke="#555555" d="M107.64,-51.47C113.65,-50.59 119.71,-49.75 125.5,-49 150.47,-45.78 177.77,-42.79 202.43,-40.29"/>
<polygon fill="#555555" stroke="#555555" points="202.45,-43.8 212.05,-39.32 201.75,-36.84 202.45,-43.8"/>
<text text-anchor="middle" x="160.75" y="-51.5" font-family="Arial" font-size="10.00">build&#45;library</text>
</g>
</g>
</svg>
